<svg height="496pt" viewBox="-75 0 495 496" width="496pt" xmlns="http://www.w3.org/2000/svg" xmlns:xlink="http://www.w3.org/1999/xlink"><linearGradient id="a"><stop offset="0" stop-color="#003f8a"/><stop offset=".518" stop-color="#00d7df"/><stop offset="1" stop-color="#006df0"/></linearGradient><linearGradient id="b" gradientUnits="userSpaceOnUse" x1="-92.716" x2="405.924" xlink:href="#a" y1="488.528" y2="-10.12"/><linearGradient id="c" gradientUnits="userSpaceOnUse" x1="-58.38" x2="440.26" xlink:href="#a" y1="522.864" y2="24.224"/><linearGradient id="d" gradientUnits="userSpaceOnUse" x1="-149.66" x2="348.98" xlink:href="#a" y1="431.584" y2="-67.056"/><linearGradient id="e" gradientUnits="userSpaceOnUse" x1="-126.372" x2="372.268" xlink:href="#a" y1="454.872" y2="-43.768"/><linearGradient id="f" gradientUnits="userSpaceOnUse" x1="-82.372" x2="416.268" xlink:href="#a" y1="498.872" y2=".232"/><linearGradient id="g" gradientUnits="userSpaceOnUse" x1="-107.084" x2="391.556" xlink:href="#a" y1="474.16" y2="-24.488"/><linearGradient id="h" gradientUnits="userSpaceOnUse" x1="-54.372" x2="444.268" xlink:href="#a" y1="526.872" y2="28.232"/><linearGradient id="i" gradientUnits="userSpaceOnUse" x1="-124.372" x2="374.268" xlink:href="#a" y1="456.872" y2="-41.768"/><linearGradient id="j" gradientUnits="userSpaceOnUse" x1="17.628" x2="516.268" xlink:href="#a" y1="598.872" y2="100.232"/><path d="m156.261719 157.601562c5.046875-7.34375 5.613281-16.878906 1.46875-24.765624-4.144531-7.886719-12.320313-12.832032-21.230469-12.835938v-16h24c4.417969 0 8-3.582031 8-8v-32c0-4.417969-3.582031-8-8-8h-24c0-4.417969-3.582031-8-8-8h-64c-4.417969 0-8 3.582031-8 8v64c-9.558594-.035156-18.222656 5.628906-22.027344 14.398438-3.804687 8.769531-2.023437 18.960937 4.53125 25.921874-23.660156 12.433594-38.484375 36.953126-38.503906 63.679688v248c0 13.253906 10.746094 24 24 24h152c13.253906 0 24-10.746094 24-24v-248c-.039062-29.019531-17.472656-55.1875-44.238281-66.398438zm-3.761719-85.601562v16h-16v-16zm-80-8h48v56h-48zm-16 88c-4.417969 0-8-3.582031-8-8s3.582031-8 8-8h80c4.417969 0 8 3.582031 8 8s-3.582031 8-8 8zm128 320c0 4.417969-3.582031 8-8 8h-152c-4.417969 0-8-3.582031-8-8v-248c.039062-30.910156 25.089844-55.960938 56-56h56c30.910156.039062 55.960938 25.089844 56 56zm0 0" fill="url(#b)"/><path d="m157.300781 185.601562c-3.535156-2.652343-8.550781-1.9375-11.199219 1.597657-2.652343 3.535156-1.9375 8.550781 1.597657 11.199219 8.085937 6.019531 12.835937 15.519531 12.800781 25.601562v192c0 4.417969 3.582031 8 8 8s8-3.582031 8-8v-192c-.046875-15.097656-7.148438-29.304688-19.199219-38.398438zm0 0" fill="url(#c)"/><path d="m192.5 64c.917969 0 1.824219-.160156 2.6875-.472656l104-37.136719c4.046875-1.5625 6.109375-6.066406 4.648438-10.148437-1.457032-4.085938-5.902344-6.265626-10.023438-4.914063l-104 37.144531c-3.65625 1.3125-5.839844 5.0625-5.175781 8.890625.664062 3.828125 3.980469 6.628907 7.863281 6.636719zm0 0" fill="url(#d)"/><path d="m328.5 8c0 4.417969-3.582031 8-8 8s-8-3.582031-8-8 3.582031-8 8-8 8 3.582031 8 8zm0 0" fill="url(#e)"/><path d="m344.5 80c0 4.417969-3.582031 8-8 8s-8-3.582031-8-8 3.582031-8 8-8 8 3.582031 8 8zm0 0" fill="url(#f)"/><path d="m299.1875 133.601562-104-37.136718c-2.722656-1.097656-5.828125-.617188-8.089844 1.253906-2.261718 1.867188-3.316406 4.828125-2.75 7.707031.566406 2.878907 2.664063 5.21875 5.464844 6.09375l104 37.144531c.863281.3125 1.769531.472657 2.6875.472657 3.894531 0 7.222656-2.800781 7.886719-6.636719.664062-3.835938-1.53125-7.59375-5.199219-8.898438zm0 0" fill="url(#g)"/><path d="m328.5 152c0 4.417969-3.582031 8-8 8s-8-3.582031-8-8 3.582031-8 8-8 8 3.582031 8 8zm0 0" fill="url(#h)"/><path d="m192.5 88h120c4.417969 0 8-3.582031 8-8s-3.582031-8-8-8h-120c-4.417969 0-8 3.582031-8 8s3.582031 8 8 8zm0 0" fill="url(#i)"/><path d="m168.5 432c-4.417969 0-8 3.582031-8 8v16c0 4.417969 3.582031 8 8 8s8-3.582031 8-8v-16c0-4.417969-3.582031-8-8-8zm0 0" fill="url(#j)"/></svg>